#!OML:ASF F:\VICON\USERDATA\INSTALL\rory3\rory3.ASF
:FULLY-SPECIFIED
:DEGREES
577
root 2.66112 9.25259 -5.75101 356.88 -45.9906 359.296
lowerback 14.1306 2.00813 -0.68632
upperback 8.58545 2.34614 1.94986
thorax 1.02172 1.0051 2.11442
lowerneck -23.0076 9.62829 -4.39796
upperneck 14.045 14.3889 0.193672
head 7.71189 6.60519 2.56826
rclavicle -6.16232e-015 -7.55382e-015
rhumerus -13.7432 5.94124 -81.6567
rradius 90.7316
rwrist 31.6825
rhand -25.4534 14.7533
rfingers 7.12502
rthumb 1.07367 -15.2238
lclavicle -6.16232e-015 -7.55382e-015
lhumerus -3.81243 -14.7458 88.2996
lradius 76.8812
lwrist -23.1415
lhand -18.5896 12.5686
lfingers 7.12502
lthumb 7.7013 42.4084
rfemur -96.4623 -19.5768 21.1857
rtibia 112.892
rfoot -9.51271 -4.88993
rtoes 0.821777
lfemur -97.2479 16.849 -22.1038
ltibia 110.006
lfoot -4.97291 -20.9345
ltoes -3.613
578
root 2.65871 9.25265 -5.75037 356.773 -45.9567 359.521
lowerback 14.2036 2.02963 -0.939226
upperback 8.51374 2.3489 1.97188
thorax 0.896526 0.999212 2.2758
lowerneck -22.8729 9.46838 -4.48609
upperneck 14.0222 14.1928 0.193916
head 7.68233 6.51014 2.54969
rclavicle 4.45278e-014 -2.06736e-014
rhumerus -13.8038 5.97036 -81.597
rradius 90.736
rwrist 31.7461
rhand -25.4481 14.7215
rfingers 7.12502
rthumb 1.07875 -15.2555
lclavicle 4.45278e-014 -2.06736e-014
lhumerus -3.92111 -14.6892 88.4316
lradius 76.959
lwrist -23.1669
lhand -18.4754 12.6729
lfingers 7.12502
lthumb 7.81154 42.5086
rfemur -96.5432 -19.6402 21.0788
rtibia 112.896
rfoot -9.45514 -4.9062
rtoes 0.307296
lfemur -97.2671 16.7757 -22.2755
ltibia 109.99
lfoot -5.05982 -20.9137
ltoes -3.83032
579
root 2.65687 9.25153 -5.74909 356.62 -45.9772 359.769
lowerback 14.283 2.06792 -1.18436
upperback 8.44601 2.37348 1.97484
thorax 0.772288 1.00524 2.40996
lowerneck -22.6858 9.31318 -4.73196
upperneck 14.0073 14.0032 0.431251
head 7.61606 6.43725 2.62605
rclavicle 9.24349e-014 -2.38542e-014
rhumerus -13.9432 5.99296 -81.521
rradius 90.8135
rwrist 31.7655
rhand -25.3558 14.7654
rfingers 7.12502
rthumb 1.16796 -15.2112
lclavicle 9.24349e-014 -2.38542e-014
lhumerus -4.06258 -14.655 88.5646
lradius 77.0206
lwrist -23.1867
lhand -18.4119 12.7089
lfingers 7.12502
lthumb 7.87275 42.5423
rfemur -96.6116 -19.6453 20.9287
rtibia 112.915
rfoot -9.42915 -4.93981
rtoes -0.24437
lfemur -97.2569 16.756 -22.4408
ltibia 109.98
lfoot -5.03152 -20.844
ltoes -3.70011
580
root 2.65492 9.25235 -5.74881 356.695 -46.0273 359.724
lowerback 14.2894 2.07566 -1.20723
upperback 8.4005 2.38303 2.00175
thorax 0.718213 1.01005 2.44854
lowerneck -22.5202 9.17339 -4.86896
upperneck 13.9736 13.8224 0.55536
head 7.56433 6.36159 2.65347
rclavicle 2.8625e-014 -2.22639e-014
rhumerus -14.078 6.04024 -81.5013
rradius 90.8903
rwrist 31.7734
rhand -25.3568 14.8764
rfingers 7.12502
rthumb 1.16693 -15.1001
lclavicle 2.8625e-014 -2.22639e-014
lhumerus -4.17113 -14.6021 88.637
lradius 77.0448
lwrist -23.2879
lhand -18.5106 12.7874
lfingers 7.12502
lthumb 7.77752 42.6244
rfemur -96.6486 -19.567 20.9691
rtibia 112.912
rfoot -9.46256 -4.96391
rtoes -0.214923
lfemur -97.3013 16.8245 -22.4171
ltibia 109.975
lfoot -5.05031 -20.8744
ltoes -3.78219
581
root 2.65178 9.25228 -5.74745 356.808 -46.022 359.665
lowerback 14.2856 2.06415 -1.19665
upperback 8.35439 2.37149 2.02495
thorax 0.67139 1.0056 2.46758
lowerneck -22.5609 8.98709 -4.86614
upperneck 14.104 13.5892 0.502789
head 7.62731 6.23793 2.6185
rclavicle -3.79679e-014 5.68524e-014
rhumerus -14.1556 6.12446 -81.4602
rradius 90.9605
rwrist 31.725
rhand -25.3514 14.7684
rfingers 7.12502
rthumb 1.17216 -15.2081
lclavicle -3.79679e-014 5.68524e-014
lhumerus -4.24753 -14.5606 88.7251
lradius 77.0231
lwrist -23.3181
lhand -18.66 12.8758
lfingers 7.12502
lthumb 7.63331 42.718
rfemur -96.7135 -19.5559 21.0442
rtibia 112.915
rfoot -9.49005 -5.0104
rtoes -0.373303
lfemur -97.377 16.8157 -22.3784
ltibia 109.977
lfoot -5.07791 -20.8893
ltoes -3.84532
